<svg xmlns="http://www.w3.org/2000/svg" fill="none" viewBox="0 0 1440 631" height="631" width="1440">
<g clip-path="url(#clip0_1414_71863)">
<g filter="url(#filter0_f_1414_71863)" opacity="0.7" style="mix-blend-mode:color-burn">
<path fill="#2B3AC1" d="M1299.74 264.592C1202.5 213.54 1221.94 31.3262 1225.54 -79.9546C1235.4 -101.28 1233.56 -116.056 1236.1 -134.279C1239.47 -158.408 1262.27 -186.898 1283.99 -203.781C1328.84 -238.654 1415.95 -276.334 1463.08 -274.182C1517.91 -271.679 1560.82 -242.63 1612.09 -231.642C1634.53 -226.83 1663.23 -221.289 1689.05 -236.31C1721.48 -255.182 1751.65 -297.566 1778.23 -325.182C1814.82 -363.208 1863.13 -426.541 1911.03 -439.76C1943.52 -448.724 1977.17 -447.59 2004.02 -437.302C2066.17 -413.48 2126.23 -366.068 2153.53 -302.382C2190.59 -215.939 2146.08 -104.082 2112.16 -3.08243C2094.04 50.8612 2062.99 166.031 1997.49 192.993C1972.2 203.405 1947.83 182.275 1932.8 170.572C1897.13 142.801 1863.68 113.11 1822.6 92.7007C1784.68 73.8591 1747.02 56.4348 1697.37 70.9015C1651.61 84.2343 1612.23 107.825 1570.48 138.09C1496.16 191.958 1375.71 304.476 1299.74 264.592Z"></path>
</g>
<g filter="url(#filter1_f_1414_71863)">
<path fill-opacity="0.89" fill="#000F9F" d="M-526.278 -71.7809C-567.484 -141.598 -437.634 -249.156 -364.582 -318.04C-343.654 -327.696 -335.704 -337.738 -322.264 -348.263C-304.469 -362.199 -269.239 -371.381 -242.161 -373.652C-186.229 -378.341 -96.5984 -368.474 -62.348 -348.903C-22.5031 -326.134 -8.44201 -291.208 23.3438 -264.46C37.264 -252.747 55.4436 -238.158 84.4443 -237.668C120.877 -237.052 170.458 -252.161 207.99 -259.332C259.67 -269.206 336.201 -290.532 380.747 -280.37C410.956 -273.478 435.67 -259.755 449.449 -242.885C481.353 -203.825 496.769 -150.673 477.146 -99.9052C450.511 -30.9951 346.181 22.4413 256.719 73.1162C208.937 100.182 112.687 160.913 46.1619 152.631C20.4717 149.433 15.4162 126.674 11.4541 113.474C2.05279 82.1515 -4.4505 50.4775 -22.5901 21.7141C-39.3363 -4.83976 -56.7763 -30.3953 -103.432 -40.4449C-146.431 -49.7069 -191.094 -50.0266 -241.77 -47.0489C-331.967 -41.7489 -494.087 -17.2373 -526.278 -71.7809Z"></path>
</g>
</g>
<defs>
<filter color-interpolation-filters="sRGB" filterUnits="userSpaceOnUse" height="1126.79" width="1353.97" y="-649.812" x="1017.55" id="filter0_f_1414_71863">
<feFlood result="BackgroundImageFix" flood-opacity="0"></feFlood>
<feBlend result="shape" in2="BackgroundImageFix" in="SourceGraphic" mode="normal"></feBlend>
<feGaussianBlur result="effect1_foregroundBlur_1414_71863" stdDeviation="102"></feGaussianBlur>
</filter>
<filter color-interpolation-filters="sRGB" filterUnits="userSpaceOnUse" height="936.206" width="1428.03" y="-578.806" x="-738.18" id="filter1_f_1414_71863">
<feFlood result="BackgroundImageFix" flood-opacity="0"></feFlood>
<feBlend result="shape" in2="BackgroundImageFix" in="SourceGraphic" mode="normal"></feBlend>
<feGaussianBlur result="effect1_foregroundBlur_1414_71863" stdDeviation="102"></feGaussianBlur>
</filter>
<clipPath id="clip0_1414_71863">
<rect fill="white" height="631" width="1440"></rect>
</clipPath>
</defs>
</svg>
